<svg xmlns="http://www.w3.org/2000/svg" viewBox="0 0 512 512">
  <defs>
    <linearGradient id="bg" x1="0" y1="0" x2="0" y2="1">
      <stop offset="0%" stop-color="#4A90E2"/>
      <stop offset="100%" stop-color="#357ABD"/>
    </linearGradient>
  </defs>
  <rect x="20" y="20" width="472" height="472" rx="80" fill="url(#bg)"/>
  <!-- Awning -->
  <path d="M100 160 L100 190 L412 190 L412 160 Z" fill="#FFD166"/>
  <path d="M100 160 L120 190 L140 160 Z" fill="#FF9F1C"/>
  <path d="M140 160 L160 190 L180 160 Z" fill="#FFD166"/>
  <path d="M180 160 L200 190 L220 160 Z" fill="#FF9F1C"/>
  <path d="M220 160 L240 190 L260 160 Z" fill="#FFD166"/>
  <path d="M260 160 L280 190 L300 160 Z" fill="#FF9F1C"/>
  <path d="M300 160 L320 190 L340 160 Z" fill="#FFD166"/>
  <path d="M340 160 L360 190 L380 160 Z" fill="#FF9F1C"/>
  <path d="M380 160 L400 190 L412 160 Z" fill="#FFD166"/>
  <!-- Body -->
  <rect x="120" y="190" width="272" height="220" rx="16" fill="white" opacity="0.95"/>
  <!-- Counter -->
  <rect x="100" y="190" width="312" height="16" rx="8" fill="#E8E8E8"/>
  <!-- Display window -->
  <rect x="160" y="220" width="192" height="140" rx="12" fill="#F0F4F8"/>
  <!-- Products on display -->
  <rect x="180" y="240" width="30" height="40" rx="6" fill="#FF6B35"/>
  <circle cx="210" cy="270" r="20" fill="#FFD166"/>
  <rect x="240" y="250" width="28" height="30" rx="4" fill="#A239EA"/>
  <circle cx="290" cy="265" r="18" fill="#D4A574"/>
  <!-- Door -->
  <rect x="200" y="360" width="112" height="50" rx="8" fill="#4A90E2" opacity="0.3"/>
</svg>
