<svg xmlns="http://www.w3.org/2000/svg" viewBox="0 0 512 512">
  <defs>
    <linearGradient id="bg" x1="0" y1="0" x2="1" y2="1">
      <stop offset="0%" stop-color="#9B51E0"/>
      <stop offset="100%" stop-color="#BB6BD9"/>
    </linearGradient>
  </defs>
  <rect x="20" y="20" width="472" height="472" rx="72" fill="url(#bg)"/>
  <!-- Simple shopping bag / store icon -->
  <path d="M140 190 L372 190 L356 400 L156 400 Z" fill="white" opacity="0.95" rx="12"/>
  <!-- Bag handles -->
  <path d="M190 190 Q190 140 256 140 Q322 140 322 190" fill="none" stroke="white" stroke-width="12" stroke-linecap="round"/>
  <!-- Awning -->
  <path d="M120 190 L140 170 L180 190 L220 170 L256 190 L292 170 L332 190 L372 170 L392 190 Z" fill="#FFD166"/>
  <!-- Product peeking out -->
  <circle cx="200" cy="280" r="20" fill="#FF6B35"/>
  <rect x="250" y="260" width="30" height="40" rx="6" fill="#27AE60"/>
  <circle cx="310" cy="275" r="18" fill="#F2994A"/>
  <!-- Price tag -->
  <rect x="320" y="210" width="50" height="22" rx="11" fill="#FFD166"/>
  <text x="345" y="225" text-anchor="middle" fill="#9B51E0" font-family="sans-serif" font-size="11" font-weight="bold">$</text>
</svg>
